<svg width="13" height="13" viewBox="0 0 13 13" fill="none" xmlns="http://www.w3.org/2000/svg">
<path fill-rule="evenodd" clip-rule="evenodd" d="M8.26152 6.27162L12.8415 1.66892C13.0528 1.45811 13.0528 1.14189 12.8415 0.931081L12.1369 0.193243C11.9255 -0.0175676 11.6084 -0.0175676 11.397 0.193243L6.78184 4.79595C6.64092 4.93649 6.42954 4.93649 6.28862 4.79595L1.67344 0.158108C1.46206 -0.0527027 1.14499 -0.0527027 0.933604 0.158108L0.193767 0.895946C-0.0176152 1.10676 -0.0176152 1.42297 0.193767 1.63378L4.80894 6.23649C4.94986 6.37703 4.94986 6.58784 4.80894 6.72838L0.158537 11.3662C-0.0528455 11.577 -0.0528455 11.8932 0.158537 12.1041L0.898374 12.8419C1.10976 13.0527 1.42683 13.0527 1.63821 12.8419L6.25339 8.23919C6.39431 8.09865 6.60569 8.09865 6.74661 8.23919L11.3618 12.8419C11.5732 13.0527 11.8902 13.0527 12.1016 12.8419L12.8415 12.1041C13.0528 11.8932 13.0528 11.577 12.8415 11.3662L8.26152 6.76351C8.1206 6.62297 8.1206 6.41216 8.26152 6.27162V6.27162Z" fill="#182846"/>
</svg>
